<svg width="22" height="20" viewBox="0 0 22 20" fill="none" xmlns="http://www.w3.org/2000/svg">
<path d="M20.2939 5.68387V8.63054H13.0311C12.2814 8.63054 11.6617 9.25027 11.6617 9.99999V13.0467C11.6617 13.7964 12.2814 14.4161 13.0311 14.4161H20.2939V17.3628C20.2939 17.7383 20.0078 18.0244 19.6322 18.0244H2.3678C1.99228 18.0244 1.70613 17.7383 1.70613 17.3628V4.81084C1.98353 4.94477 2.29408 5.02221 2.62169 5.02221H2.62178C6.52287 5.01874 10.7302 5.02001 14.5709 5.02116C16.3603 5.02169 18.0701 5.02221 19.6322 5.02221C20.0078 5.02221 20.2939 5.30836 20.2939 5.68387ZM13.0309 9.8461H13.0311H20.2939V13.2005H13.0311C12.9803 13.2005 12.9431 13.1832 12.9189 13.1589C12.8946 13.1347 12.8772 13.0975 12.8772 13.0467V9.99999C12.8772 9.94916 12.8946 9.91188 12.9189 9.88757C12.9432 9.86329 12.9803 9.84599 13.0309 9.8461ZM2.62169 0.759985C1.45001 0.759985 0.490576 1.71942 0.490576 2.8911V17.3628C0.490576 18.3938 1.33677 19.24 2.3678 19.24H19.6322C20.6633 19.24 21.5095 18.3938 21.5095 17.3628V5.68387C21.5095 4.65285 20.6633 3.80665 19.6322 3.80665H18.4628V1.36776C18.4628 1.04666 18.1761 0.760016 17.855 0.759985H2.62169ZM2.62169 1.97554H17.2472V3.80665H2.62169C2.10551 3.80665 1.70613 3.40727 1.70613 2.8911C1.70613 2.37492 2.10551 1.97554 2.62169 1.97554ZM15.57 10.4078C14.9539 10.4078 14.4545 10.9072 14.4545 11.5233C14.4545 12.1394 14.9539 12.6389 15.57 12.6389C16.1861 12.6389 16.6856 12.1394 16.6856 11.5233C16.6856 10.9072 16.1861 10.4078 15.57 10.4078Z" fill="#4A5568" stroke="#4A5568" stroke-width="0.2"/>
</svg>
