<?xml version="1.0" encoding="UTF-8" standalone="no" ?>
<!DOCTYPE svg PUBLIC "-//W3C//DTD SVG 1.1//EN" "http://www.w3.org/Graphics/SVG/1.1/DTD/svg11.dtd">
<svg xmlns="http://www.w3.org/2000/svg" xmlns:xlink="http://www.w3.org/1999/xlink" version="1.1" width="400" height="400" viewBox="0 0 400 400" xml:space="preserve">
<desc>Created with Fabric.js 3.6.2</desc>
<defs>
</defs>
<g transform="matrix(3.13 0 0 3.13 214.06 231.25)" id="fill"  >
<polygon style="stroke: none; stroke-width: 1; stroke-dasharray: none; stroke-linecap: butt; stroke-dashoffset: 0; stroke-linejoin: miter; stroke-miterlimit: 4; fill: rgb(229,230,235); fill-rule: nonzero; opacity: 1;"  points="-10.5,11 -6.5,7 7.5,7 18.5,-8 14.5,-11 6.5,-3 -12.5,-3 -18.5,3 -10.5,11 " />
</g>
<g transform="matrix(2.21 -2.21 2.21 2.21 159.37 262.5)" id="fill"  >
<rect style="stroke: none; stroke-width: 1; stroke-dasharray: none; stroke-linecap: butt; stroke-dashoffset: 0; stroke-linejoin: miter; stroke-miterlimit: 4; fill: rgb(204,234,255); fill-rule: nonzero; opacity: 1;"  x="-4.9495" y="-7.778" rx="0" ry="0" width="9.899" height="15.556" />
</g>
<g transform="matrix(2.21 -2.21 2.21 2.21 172.66 275.78)" id="fill"  >
<rect style="stroke: none; stroke-width: 1; stroke-dasharray: none; stroke-linecap: butt; stroke-dashoffset: 0; stroke-linejoin: miter; stroke-miterlimit: 4; fill: rgb(133,180,224); fill-rule: nonzero; opacity: 1;"  x="-4.9495" y="-1.768" rx="0" ry="0" width="9.899" height="3.536" />
</g>
<g transform="matrix(3.13 0 0 3.13 206.25 231.25)" id="fill"  >
<polygon style="stroke: none; stroke-width: 1; stroke-dasharray: none; stroke-linecap: butt; stroke-dashoffset: 0; stroke-linejoin: miter; stroke-miterlimit: 4; fill: rgb(217,218,226); fill-rule: nonzero; opacity: 1;"  points="2,1 2,-3 4,-3 4,3 -4,3 -4,1 2,1 " />
</g>
<g transform="matrix(3.13 0 0 3.13 159.38 260.94)" id="fill"  >
<polygon style="stroke: none; stroke-width: 1; stroke-dasharray: none; stroke-linecap: butt; stroke-dashoffset: 0; stroke-linejoin: miter; stroke-miterlimit: 4; fill: rgb(255,255,255); fill-rule: nonzero; opacity: 1;"  points="-3,1.5 0,-1.5 3,1.5 -3,1.5 " />
</g>
<g transform="matrix(3.13 0 0 3.13 200 184.38)" id="fill"  >
<circle style="stroke: none; stroke-width: 1; stroke-dasharray: none; stroke-linecap: butt; stroke-dashoffset: 0; stroke-linejoin: miter; stroke-miterlimit: 4; fill: rgb(2,125,229); fill-rule: nonzero; opacity: 1;"  cx="0" cy="0" r="8" />
</g>
<g transform="matrix(3.13 0 0 3.13 256.25 153.13)" id="fill"  >
<circle style="stroke: none; stroke-width: 1; stroke-dasharray: none; stroke-linecap: butt; stroke-dashoffset: 0; stroke-linejoin: miter; stroke-miterlimit: 4; fill: rgb(2,125,229); fill-rule: nonzero; opacity: 1;"  cx="0" cy="0" r="6" />
</g>
<g transform="matrix(3.13 0 0 3.13 146.88 140.63)" id="fill"  >
<circle style="stroke: none; stroke-width: 1; stroke-dasharray: none; stroke-linecap: butt; stroke-dashoffset: 0; stroke-linejoin: miter; stroke-miterlimit: 4; fill: rgb(2,125,229); fill-rule: nonzero; opacity: 1;"  cx="0" cy="0" r="4" />
</g>
<g transform="matrix(3.13 0 0 3.13 200 184.37)" id="fill"  >
<path style="stroke: none; stroke-width: 1; stroke-dasharray: none; stroke-linecap: butt; stroke-dashoffset: 0; stroke-linejoin: miter; stroke-miterlimit: 4; fill: rgb(255,255,255); fill-rule: nonzero; opacity: 1;"  transform=" translate(-32, -27)" d="M 34.14 32.114 a 3.028 3.028 0 0 0 -0.2 -4.464 l -2.593 -2.16 a 1.025 1.025 0 0 1 -0.069 -1.512 a 1.051 1.051 0 0 1 1.45 0 l 1.568 1.568 l 1.414 -1.414 l -1.568 -1.569 a 2.99 2.99 0 0 0 -1.139 -0.7 v -2.79 a 7.281 7.281 0 0 0 -2 0 v 2.789 a 3 3 0 0 0 -1.14 0.7 a 3.027 3.027 0 0 0 0.2 4.464 l 2.593 2.161 a 1.025 1.025 0 0 1 0.07 1.511 a 1.027 1.027 0 0 1 -1.451 0 l -1.568 -1.568 l -1.414 1.414 l 1.568 1.569 a 2.983 2.983 0 0 0 1.139 0.7 v 2.113 a 7.281 7.281 0 0 0 2 0 V 32.818 A 3 3 0 0 0 34.14 32.114 Z" stroke-linecap="round" />
</g>
<g transform="matrix(3.13 0 0 3.13 200 139.06)" id="fill"  >
<line style="stroke: rgb(7,210,237); stroke-width: 1; stroke-dasharray: none; stroke-linecap: butt; stroke-dashoffset: 0; stroke-linejoin: round; stroke-miterlimit: 4; fill: none; fill-rule: nonzero; opacity: 1;"  x1="0" y1="-3.5" x2="0" y2="3.5" />
</g>
<g transform="matrix(3.13 0 0 3.13 187.5 132.81)" id="fill"  >
<line style="stroke: rgb(7,210,237); stroke-width: 1; stroke-dasharray: none; stroke-linecap: butt; stroke-dashoffset: 0; stroke-linejoin: round; stroke-miterlimit: 4; fill: none; fill-rule: nonzero; opacity: 1;"  x1="0" y1="-3.5" x2="0" y2="3.5" />
</g>
<g transform="matrix(3.13 0 0 3.13 212.5 132.81)" id="fill"  >
<line style="stroke: rgb(7,210,237); stroke-width: 1; stroke-dasharray: none; stroke-linecap: butt; stroke-dashoffset: 0; stroke-linejoin: round; stroke-miterlimit: 4; fill: none; fill-rule: nonzero; opacity: 1;"  x1="0" y1="-3.5" x2="0" y2="3.5" />
</g>
<g transform="matrix(3.13 0 0 3.13 146.88 112.5)" id="fill"  >
<line style="stroke: rgb(7,210,237); stroke-width: 1; stroke-dasharray: none; stroke-linecap: butt; stroke-dashoffset: 0; stroke-linejoin: round; stroke-miterlimit: 4; fill: none; fill-rule: nonzero; opacity: 1;"  x1="0" y1="-2" x2="0" y2="2" />
</g>
<g transform="matrix(3.13 0 0 3.13 159.38 115.63)" id="fill"  >
<line style="stroke: rgb(7,210,237); stroke-width: 1; stroke-dasharray: none; stroke-linecap: butt; stroke-dashoffset: 0; stroke-linejoin: round; stroke-miterlimit: 4; fill: none; fill-rule: nonzero; opacity: 1;"  x1="0" y1="-3" x2="0" y2="3" />
</g>
<g transform="matrix(3.13 0 0 3.13 134.38 109.38)" id="fill"  >
<line style="stroke: rgb(7,210,237); stroke-width: 1; stroke-dasharray: none; stroke-linecap: butt; stroke-dashoffset: 0; stroke-linejoin: round; stroke-miterlimit: 4; fill: none; fill-rule: nonzero; opacity: 1;"  x1="0" y1="-1" x2="0" y2="1" />
</g>
<g transform="matrix(3.13 0 0 3.13 243.75 120.31)" id="fill"  >
<line style="stroke: rgb(7,210,237); stroke-width: 1; stroke-dasharray: none; stroke-linecap: butt; stroke-dashoffset: 0; stroke-linejoin: round; stroke-miterlimit: 4; fill: none; fill-rule: nonzero; opacity: 1;"  x1="0" y1="-2.5" x2="0" y2="2.5" />
</g>
<g transform="matrix(3.13 0 0 3.13 256.25 117.19)" id="fill"  >
<line style="stroke: rgb(7,210,237); stroke-width: 1; stroke-dasharray: none; stroke-linecap: butt; stroke-dashoffset: 0; stroke-linejoin: round; stroke-miterlimit: 4; fill: none; fill-rule: nonzero; opacity: 1;"  x1="0" y1="-2.5" x2="0" y2="2.5" />
</g>
<g transform="matrix(3.13 0 0 3.13 268.75 110.94)" id="fill"  >
<line style="stroke: rgb(7,210,237); stroke-width: 1; stroke-dasharray: none; stroke-linecap: butt; stroke-dashoffset: 0; stroke-linejoin: round; stroke-miterlimit: 4; fill: none; fill-rule: nonzero; opacity: 1;"  x1="0" y1="-1.5" x2="0" y2="1.5" />
</g>
<g transform="matrix(3.13 0 0 3.13 201.56 243.75)" id="fill"  >
<path style="stroke: none; stroke-width: 1; stroke-dasharray: none; stroke-linecap: butt; stroke-dashoffset: 0; stroke-linejoin: miter; stroke-miterlimit: 4; fill: rgb(0,0,0); fill-rule: nonzero; opacity: 1;"  transform=" translate(-32.5, -46)" d="M 55.6 33.2 l -4 -3 a 1 1 0 0 0 -1.307 0.093 L 42.586 38 H 24 a 1 1 0 0 0 -0.707 0.293 L 18.5 43.086 l -0.793 -0.793 a 1 1 0 0 0 -1.414 0 l -7 7 a 1 1 0 0 0 0 1.414 l 11 11 a 1 1 0 0 0 1.414 0 l 7 -7 a 1 1 0 0 0 0 -1.414 l -0.793 -0.793 l 2.5 -2.5 H 44 a 1 1 0 0 0 0.807 -0.408 l 11 -15 A 1 1 0 0 0 55.6 33.2 Z M 21 59.586 L 11.414 50 L 17 44.414 L 26.586 54 Z M 43.493 48 H 30 a 1 1 0 0 0 -0.707 0.293 L 26.5 51.086 L 19.914 44.5 l 4.5 -4.5 H 37 v 4 H 30 v 2 h 8 a 1 1 0 0 0 1 -1 V 40 h 4 a 1 1 0 0 0 0.707 -0.293 l 7.387 -7.387 l 2.514 1.886 Z" stroke-linecap="round" />
</g>
</svg>